<mxfile host="app.diagrams.net" agent="Mozilla/5.0 (Macintosh; Intel Mac OS X 10_15_7) AppleWebKit/537.36 (KHTML, like Gecko) Chrome/129.0.0.0 Safari/537.36" version="24.9.0">
  <diagram name="Page-1" id="KhZwD03YHWD_nQGP1-q-">
    <mxGraphModel dx="855" dy="731" grid="1" gridSize="10" guides="1" tooltips="1" connect="1" arrows="1" fold="1" page="1" pageScale="1" pageWidth="850" pageHeight="1100" math="0" shadow="0">
      <root>
        <mxCell id="0" />
        <mxCell id="1" parent="0" />
        <mxCell id="uNR7orJYZD1v8SNIuK0m-5" value="Physician Notes" style="sketch=0;aspect=fixed;pointerEvents=1;shadow=0;dashed=0;html=1;strokeColor=none;labelPosition=center;verticalLabelPosition=bottom;verticalAlign=top;align=center;fillColor=#00188D;shape=mxgraph.mscae.enterprise.document" vertex="1" parent="1">
          <mxGeometry x="80" y="210" width="40" height="50" as="geometry" />
        </mxCell>
        <mxCell id="uNR7orJYZD1v8SNIuK0m-7" value="Medical Images" style="shape=image;html=1;verticalAlign=top;verticalLabelPosition=bottom;labelBackgroundColor=#ffffff;imageAspect=0;aspect=fixed;image=https://cdn4.iconfinder.com/data/icons/evil-icons-user-interface/64/picture-128.png" vertex="1" parent="1">
          <mxGeometry x="70" y="120" width="60" height="60" as="geometry" />
        </mxCell>
        <mxCell id="uNR7orJYZD1v8SNIuK0m-34" value="Patient Demographic" style="sketch=0;aspect=fixed;pointerEvents=1;shadow=0;dashed=0;html=1;strokeColor=none;labelPosition=center;verticalLabelPosition=bottom;verticalAlign=top;align=center;fillColor=#00188D;shape=mxgraph.mscae.enterprise.document" vertex="1" parent="1">
          <mxGeometry x="80" y="320" width="40" height="50" as="geometry" />
        </mxCell>
        <mxCell id="uNR7orJYZD1v8SNIuK0m-52" style="edgeStyle=orthogonalEdgeStyle;rounded=0;orthogonalLoop=1;jettySize=auto;html=1;" edge="1" parent="1" source="uNR7orJYZD1v8SNIuK0m-35" target="uNR7orJYZD1v8SNIuK0m-37">
          <mxGeometry relative="1" as="geometry" />
        </mxCell>
        <mxCell id="uNR7orJYZD1v8SNIuK0m-35" value="Medication and T&lt;span style=&quot;background-color: initial;&quot;&gt;reatment&lt;/span&gt;" style="sketch=0;aspect=fixed;pointerEvents=1;shadow=0;dashed=0;html=1;strokeColor=none;labelPosition=center;verticalLabelPosition=bottom;verticalAlign=top;align=center;fillColor=#00188D;shape=mxgraph.mscae.enterprise.document" vertex="1" parent="1">
          <mxGeometry x="80" y="400" width="40" height="50" as="geometry" />
        </mxCell>
        <mxCell id="uNR7orJYZD1v8SNIuK0m-41" style="edgeStyle=orthogonalEdgeStyle;rounded=0;orthogonalLoop=1;jettySize=auto;html=1;" edge="1" parent="1" source="uNR7orJYZD1v8SNIuK0m-36" target="uNR7orJYZD1v8SNIuK0m-38">
          <mxGeometry relative="1" as="geometry" />
        </mxCell>
        <mxCell id="uNR7orJYZD1v8SNIuK0m-36" value="Amazon S3" style="sketch=0;points=[[0,0,0],[0.25,0,0],[0.5,0,0],[0.75,0,0],[1,0,0],[0,1,0],[0.25,1,0],[0.5,1,0],[0.75,1,0],[1,1,0],[0,0.25,0],[0,0.5,0],[0,0.75,0],[1,0.25,0],[1,0.5,0],[1,0.75,0]];outlineConnect=0;fontColor=#232F3E;fillColor=#7AA116;strokeColor=#ffffff;dashed=0;verticalLabelPosition=bottom;verticalAlign=top;align=center;html=1;fontSize=12;fontStyle=0;aspect=fixed;shape=mxgraph.aws4.resourceIcon;resIcon=mxgraph.aws4.s3;" vertex="1" parent="1">
          <mxGeometry x="200" y="162" width="78" height="78" as="geometry" />
        </mxCell>
        <mxCell id="uNR7orJYZD1v8SNIuK0m-42" style="edgeStyle=orthogonalEdgeStyle;rounded=0;orthogonalLoop=1;jettySize=auto;html=1;" edge="1" parent="1" source="uNR7orJYZD1v8SNIuK0m-37" target="uNR7orJYZD1v8SNIuK0m-38">
          <mxGeometry relative="1" as="geometry">
            <Array as="points">
              <mxPoint x="399" y="379" />
            </Array>
          </mxGeometry>
        </mxCell>
        <mxCell id="uNR7orJYZD1v8SNIuK0m-37" value="Amazon RDS" style="sketch=0;points=[[0,0,0],[0.25,0,0],[0.5,0,0],[0.75,0,0],[1,0,0],[0,1,0],[0.25,1,0],[0.5,1,0],[0.75,1,0],[1,1,0],[0,0.25,0],[0,0.5,0],[0,0.75,0],[1,0.25,0],[1,0.5,0],[1,0.75,0]];outlineConnect=0;fontColor=#232F3E;fillColor=#C925D1;strokeColor=#ffffff;dashed=0;verticalLabelPosition=bottom;verticalAlign=top;align=center;html=1;fontSize=12;fontStyle=0;aspect=fixed;shape=mxgraph.aws4.resourceIcon;resIcon=mxgraph.aws4.rds;" vertex="1" parent="1">
          <mxGeometry x="200" y="340" width="78" height="78" as="geometry" />
        </mxCell>
        <mxCell id="uNR7orJYZD1v8SNIuK0m-44" style="edgeStyle=orthogonalEdgeStyle;rounded=0;orthogonalLoop=1;jettySize=auto;html=1;" edge="1" parent="1" source="uNR7orJYZD1v8SNIuK0m-38" target="uNR7orJYZD1v8SNIuK0m-39">
          <mxGeometry relative="1" as="geometry" />
        </mxCell>
        <mxCell id="uNR7orJYZD1v8SNIuK0m-38" value="AWS Glue Crawler" style="sketch=0;outlineConnect=0;fontColor=#232F3E;gradientColor=none;fillColor=#8C4FFF;strokeColor=none;dashed=0;verticalLabelPosition=bottom;verticalAlign=top;align=center;html=1;fontSize=12;fontStyle=0;aspect=fixed;pointerEvents=1;shape=mxgraph.aws4.glue_crawlers;" vertex="1" parent="1">
          <mxGeometry x="360" y="262" width="78" height="78" as="geometry" />
        </mxCell>
        <mxCell id="uNR7orJYZD1v8SNIuK0m-39" value="AWS Glue Data Catalog" style="sketch=0;outlineConnect=0;fontColor=#232F3E;gradientColor=none;fillColor=#8C4FFF;strokeColor=none;dashed=0;verticalLabelPosition=bottom;verticalAlign=top;align=center;html=1;fontSize=12;fontStyle=0;aspect=fixed;pointerEvents=1;shape=mxgraph.aws4.glue_data_catalog;" vertex="1" parent="1">
          <mxGeometry x="520" y="262" width="72" height="78" as="geometry" />
        </mxCell>
        <mxCell id="uNR7orJYZD1v8SNIuK0m-40" value="AWS Glue ETL" style="sketch=0;points=[[0,0,0],[0.25,0,0],[0.5,0,0],[0.75,0,0],[1,0,0],[0,1,0],[0.25,1,0],[0.5,1,0],[0.75,1,0],[1,1,0],[0,0.25,0],[0,0.5,0],[0,0.75,0],[1,0.25,0],[1,0.5,0],[1,0.75,0]];outlineConnect=0;fontColor=#232F3E;fillColor=#8C4FFF;strokeColor=#ffffff;dashed=0;verticalLabelPosition=bottom;verticalAlign=top;align=center;html=1;fontSize=12;fontStyle=0;aspect=fixed;shape=mxgraph.aws4.resourceIcon;resIcon=mxgraph.aws4.glue;" vertex="1" parent="1">
          <mxGeometry x="680" y="262" width="78" height="78" as="geometry" />
        </mxCell>
        <mxCell id="uNR7orJYZD1v8SNIuK0m-43" style="edgeStyle=orthogonalEdgeStyle;rounded=0;orthogonalLoop=1;jettySize=auto;html=1;entryX=0.5;entryY=1;entryDx=0;entryDy=0;entryPerimeter=0;" edge="1" parent="1" source="uNR7orJYZD1v8SNIuK0m-37" target="uNR7orJYZD1v8SNIuK0m-40">
          <mxGeometry relative="1" as="geometry" />
        </mxCell>
        <mxCell id="uNR7orJYZD1v8SNIuK0m-45" style="edgeStyle=orthogonalEdgeStyle;rounded=0;orthogonalLoop=1;jettySize=auto;html=1;entryX=0;entryY=0.5;entryDx=0;entryDy=0;entryPerimeter=0;" edge="1" parent="1" source="uNR7orJYZD1v8SNIuK0m-39" target="uNR7orJYZD1v8SNIuK0m-40">
          <mxGeometry relative="1" as="geometry" />
        </mxCell>
        <mxCell id="uNR7orJYZD1v8SNIuK0m-46" style="edgeStyle=orthogonalEdgeStyle;rounded=0;orthogonalLoop=1;jettySize=auto;html=1;entryX=0.5;entryY=0;entryDx=0;entryDy=0;entryPerimeter=0;" edge="1" parent="1" source="uNR7orJYZD1v8SNIuK0m-36" target="uNR7orJYZD1v8SNIuK0m-40">
          <mxGeometry relative="1" as="geometry" />
        </mxCell>
        <mxCell id="uNR7orJYZD1v8SNIuK0m-47" value="Amazon SageMaker Feature Store&amp;nbsp;" style="sketch=0;points=[[0,0,0],[0.25,0,0],[0.5,0,0],[0.75,0,0],[1,0,0],[0,1,0],[0.25,1,0],[0.5,1,0],[0.75,1,0],[1,1,0],[0,0.25,0],[0,0.5,0],[0,0.75,0],[1,0.25,0],[1,0.5,0],[1,0.75,0]];outlineConnect=0;fontColor=#232F3E;fillColor=#01A88D;strokeColor=#ffffff;dashed=0;verticalLabelPosition=bottom;verticalAlign=top;align=center;html=1;fontSize=12;fontStyle=0;aspect=fixed;shape=mxgraph.aws4.resourceIcon;resIcon=mxgraph.aws4.sagemaker;" vertex="1" parent="1">
          <mxGeometry x="840" y="262" width="78" height="78" as="geometry" />
        </mxCell>
        <mxCell id="uNR7orJYZD1v8SNIuK0m-48" style="edgeStyle=orthogonalEdgeStyle;rounded=0;orthogonalLoop=1;jettySize=auto;html=1;entryX=0;entryY=0.5;entryDx=0;entryDy=0;entryPerimeter=0;" edge="1" parent="1" source="uNR7orJYZD1v8SNIuK0m-7" target="uNR7orJYZD1v8SNIuK0m-36">
          <mxGeometry relative="1" as="geometry">
            <Array as="points">
              <mxPoint x="160" y="150" />
              <mxPoint x="160" y="201" />
            </Array>
          </mxGeometry>
        </mxCell>
        <mxCell id="uNR7orJYZD1v8SNIuK0m-50" style="edgeStyle=orthogonalEdgeStyle;rounded=0;orthogonalLoop=1;jettySize=auto;html=1;entryX=0;entryY=0.5;entryDx=0;entryDy=0;entryPerimeter=0;" edge="1" parent="1" source="uNR7orJYZD1v8SNIuK0m-5" target="uNR7orJYZD1v8SNIuK0m-36">
          <mxGeometry relative="1" as="geometry" />
        </mxCell>
        <mxCell id="uNR7orJYZD1v8SNIuK0m-51" style="edgeStyle=orthogonalEdgeStyle;rounded=0;orthogonalLoop=1;jettySize=auto;html=1;entryX=0;entryY=0.5;entryDx=0;entryDy=0;entryPerimeter=0;" edge="1" parent="1" source="uNR7orJYZD1v8SNIuK0m-34" target="uNR7orJYZD1v8SNIuK0m-37">
          <mxGeometry relative="1" as="geometry" />
        </mxCell>
        <mxCell id="uNR7orJYZD1v8SNIuK0m-53" style="edgeStyle=orthogonalEdgeStyle;rounded=0;orthogonalLoop=1;jettySize=auto;html=1;entryX=0;entryY=0.5;entryDx=0;entryDy=0;entryPerimeter=0;" edge="1" parent="1" source="uNR7orJYZD1v8SNIuK0m-40" target="uNR7orJYZD1v8SNIuK0m-47">
          <mxGeometry relative="1" as="geometry" />
        </mxCell>
      </root>
    </mxGraphModel>
  </diagram>
</mxfile>
